G75*
G70*
%OFA0B0*%
%FSLAX24Y24*%
%IPPOS*%
%LPD*%
%AMOC8*
5,1,8,0,0,1.08239X$1,22.5*
%
%ADD10C,0.0472*%
%ADD11C,0.0060*%
%ADD12C,0.0460*%
%ADD13C,0.0260*%
%ADD14C,0.0080*%
%ADD15C,0.0160*%
%ADD16C,0.0553*%
%ADD17R,0.0356X0.0356*%
%ADD18C,0.0356*%
D10*
X007860Y015540D03*
X008860Y015540D03*
X009860Y015540D03*
X012860Y015540D03*
X013860Y015540D03*
D11*
X014201Y015675D02*
X018584Y015675D01*
X018643Y015733D02*
X014176Y015733D01*
X014170Y015747D02*
X014067Y015850D01*
X013933Y015906D01*
X013787Y015906D01*
X013653Y015850D01*
X013550Y015747D01*
X013494Y015613D01*
X013494Y015467D01*
X013550Y015333D01*
X013653Y015230D01*
X013787Y015174D01*
X013933Y015174D01*
X014067Y015230D01*
X014170Y015333D01*
X014226Y015467D01*
X014226Y015613D01*
X014170Y015747D01*
X014126Y015792D02*
X018701Y015792D01*
X018710Y015800D02*
X016348Y013438D01*
X016048Y013438D01*
X015972Y013362D01*
X015972Y012898D01*
X016048Y012822D01*
X016512Y012822D01*
X016588Y012898D01*
X016588Y013198D01*
X018950Y015560D01*
X019572Y015560D01*
X019572Y015498D01*
X019648Y015422D01*
X020112Y015422D01*
X020188Y015498D01*
X020188Y015962D01*
X020112Y016038D01*
X019648Y016038D01*
X019572Y015962D01*
X019572Y015900D01*
X018810Y015900D01*
X018710Y015800D01*
X018760Y015850D02*
X014068Y015850D01*
X014225Y015616D02*
X018526Y015616D01*
X018467Y015558D02*
X014226Y015558D01*
X014226Y015499D02*
X018409Y015499D01*
X018350Y015441D02*
X014215Y015441D01*
X014191Y015382D02*
X018292Y015382D01*
X018233Y015324D02*
X014161Y015324D01*
X014103Y015265D02*
X018175Y015265D01*
X018116Y015207D02*
X014012Y015207D01*
X013708Y015207D02*
X013012Y015207D01*
X013033Y015215D02*
X012967Y015188D01*
X012896Y015174D01*
X012890Y015174D01*
X012890Y015510D01*
X012890Y015570D01*
X013226Y015570D01*
X013226Y015576D01*
X013212Y015647D01*
X013185Y015713D01*
X013144Y015773D01*
X013093Y015824D01*
X013033Y015865D01*
X012967Y015892D01*
X012896Y015906D01*
X012890Y015906D01*
X012890Y015570D01*
X012830Y015570D01*
X012830Y015906D01*
X012824Y015906D01*
X012753Y015892D01*
X012687Y015865D01*
X012627Y015824D01*
X012576Y015773D01*
X012535Y015713D01*
X012508Y015647D01*
X012494Y015576D01*
X012494Y015570D01*
X012830Y015570D01*
X012830Y015510D01*
X012890Y015510D01*
X013226Y015510D01*
X013226Y015504D01*
X013212Y015433D01*
X013185Y015367D01*
X013144Y015307D01*
X013093Y015256D01*
X013033Y015215D01*
X013103Y015265D02*
X013617Y015265D01*
X013559Y015324D02*
X013156Y015324D01*
X013191Y015382D02*
X013529Y015382D01*
X013505Y015441D02*
X013214Y015441D01*
X013225Y015499D02*
X013494Y015499D01*
X013494Y015558D02*
X012890Y015558D01*
X012890Y015616D02*
X012830Y015616D01*
X012830Y015558D02*
X012280Y015558D01*
X012280Y015616D02*
X012502Y015616D01*
X012519Y015675D02*
X012280Y015675D01*
X012280Y015733D02*
X012549Y015733D01*
X012594Y015792D02*
X012280Y015792D01*
X012280Y015850D02*
X012665Y015850D01*
X012830Y015850D02*
X012890Y015850D01*
X012890Y015792D02*
X012830Y015792D01*
X012830Y015733D02*
X012890Y015733D01*
X012890Y015675D02*
X012830Y015675D01*
X012830Y015510D02*
X012494Y015510D01*
X012494Y015504D01*
X012508Y015433D01*
X012535Y015367D01*
X012576Y015307D01*
X012627Y015256D01*
X012687Y015215D01*
X012753Y015188D01*
X012824Y015174D01*
X012830Y015174D01*
X012830Y015510D01*
X012830Y015499D02*
X012890Y015499D01*
X012890Y015441D02*
X012830Y015441D01*
X012830Y015382D02*
X012890Y015382D01*
X012890Y015324D02*
X012830Y015324D01*
X012830Y015265D02*
X012890Y015265D01*
X012890Y015207D02*
X012830Y015207D01*
X012708Y015207D02*
X012280Y015207D01*
X012280Y015265D02*
X012617Y015265D01*
X012564Y015324D02*
X012280Y015324D01*
X012280Y015382D02*
X012529Y015382D01*
X012506Y015441D02*
X012280Y015441D01*
X012280Y015499D02*
X012495Y015499D01*
X012280Y015148D02*
X018058Y015148D01*
X017999Y015090D02*
X012280Y015090D01*
X012280Y015031D02*
X017941Y015031D01*
X017882Y014973D02*
X012280Y014973D01*
X012280Y014914D02*
X017824Y014914D01*
X017765Y014856D02*
X012280Y014856D01*
X012280Y014797D02*
X017707Y014797D01*
X017648Y014739D02*
X012280Y014739D01*
X012280Y014680D02*
X017590Y014680D01*
X017531Y014622D02*
X012280Y014622D01*
X012280Y014563D02*
X017473Y014563D01*
X017414Y014505D02*
X012280Y014505D01*
X012280Y014446D02*
X017356Y014446D01*
X017297Y014388D02*
X012280Y014388D01*
X012280Y014329D02*
X017239Y014329D01*
X017180Y014271D02*
X012280Y014271D01*
X012280Y014212D02*
X017122Y014212D01*
X017063Y014154D02*
X012280Y014154D01*
X012280Y014095D02*
X017005Y014095D01*
X016946Y014037D02*
X012280Y014037D01*
X012280Y013978D02*
X016888Y013978D01*
X016829Y013920D02*
X012280Y013920D01*
X012280Y013861D02*
X016771Y013861D01*
X016712Y013803D02*
X012280Y013803D01*
X012280Y013744D02*
X016654Y013744D01*
X016595Y013686D02*
X012280Y013686D01*
X012280Y013627D02*
X016537Y013627D01*
X016478Y013569D02*
X012280Y013569D01*
X012280Y013510D02*
X016420Y013510D01*
X016361Y013452D02*
X012280Y013452D01*
X012280Y013393D02*
X016003Y013393D01*
X015972Y013335D02*
X012280Y013335D01*
X012280Y013276D02*
X015972Y013276D01*
X015972Y013218D02*
X012280Y013218D01*
X012280Y013159D02*
X015972Y013159D01*
X015972Y013101D02*
X012280Y013101D01*
X012280Y013042D02*
X015972Y013042D01*
X015972Y012984D02*
X012280Y012984D01*
X012280Y012925D02*
X015972Y012925D01*
X016003Y012867D02*
X012280Y012867D01*
X012280Y012808D02*
X017572Y012808D01*
X017572Y012750D02*
X012280Y012750D01*
X012280Y012691D02*
X017572Y012691D01*
X017572Y012633D02*
X012280Y012633D01*
X012280Y012574D02*
X017572Y012574D01*
X017572Y012516D02*
X012280Y012516D01*
X012280Y012457D02*
X017613Y012457D01*
X017648Y012422D02*
X017948Y012422D01*
X018210Y012160D01*
X018572Y012160D01*
X018572Y012098D01*
X018648Y012022D01*
X019112Y012022D01*
X019188Y012098D01*
X019188Y012562D01*
X019112Y012638D01*
X018648Y012638D01*
X018572Y012562D01*
X018572Y012500D01*
X018350Y012500D01*
X018188Y012662D01*
X018188Y012962D01*
X018112Y013038D01*
X017648Y013038D01*
X017572Y012962D01*
X017572Y012498D01*
X017648Y012422D01*
X017971Y012399D02*
X012280Y012399D01*
X012280Y012340D02*
X018030Y012340D01*
X018088Y012282D02*
X012280Y012282D01*
X012280Y012223D02*
X018147Y012223D01*
X018205Y012165D02*
X012280Y012165D01*
X012280Y012106D02*
X018572Y012106D01*
X018622Y012048D02*
X012280Y012048D01*
X012280Y011989D02*
X020820Y011989D01*
X020820Y011931D02*
X012280Y011931D01*
X012280Y011872D02*
X020820Y011872D01*
X020820Y011814D02*
X012280Y011814D01*
X012280Y011755D02*
X020820Y011755D01*
X020820Y011697D02*
X012280Y011697D01*
X012280Y011638D02*
X020820Y011638D01*
X020820Y011580D02*
X012280Y011580D01*
X012280Y011521D02*
X020820Y011521D01*
X020820Y011463D02*
X012280Y011463D01*
X012280Y011404D02*
X020820Y011404D01*
X020820Y011346D02*
X012280Y011346D01*
X012280Y011287D02*
X020820Y011287D01*
X020820Y011229D02*
X012280Y011229D01*
X012280Y011170D02*
X020820Y011170D01*
X020820Y011112D02*
X012280Y011112D01*
X012280Y011053D02*
X020820Y011053D01*
X020820Y010995D02*
X012280Y010995D01*
X012280Y010936D02*
X020820Y010936D01*
X020820Y010878D02*
X012280Y010878D01*
X012280Y010819D02*
X020820Y010819D01*
X020820Y010761D02*
X012280Y010761D01*
X012280Y010702D02*
X020820Y010702D01*
X020820Y010644D02*
X012280Y010644D01*
X012280Y010585D02*
X020820Y010585D01*
X020820Y010527D02*
X012280Y010527D01*
X012280Y010468D02*
X020820Y010468D01*
X020820Y010410D02*
X012280Y010410D01*
X012280Y010351D02*
X020820Y010351D01*
X020820Y010293D02*
X012280Y010293D01*
X012280Y010234D02*
X020820Y010234D01*
X020820Y010176D02*
X012280Y010176D01*
X012280Y010117D02*
X020820Y010117D01*
X020820Y010059D02*
X012280Y010059D01*
X012280Y010000D02*
X020820Y010000D01*
X020820Y009942D02*
X012280Y009942D01*
X012280Y009883D02*
X020820Y009883D01*
X020820Y009825D02*
X012280Y009825D01*
X012280Y009766D02*
X020820Y009766D01*
X020820Y009708D02*
X012280Y009708D01*
X012280Y009649D02*
X020820Y009649D01*
X020820Y009591D02*
X012280Y009591D01*
X012280Y009532D02*
X020820Y009532D01*
X020820Y009474D02*
X012280Y009474D01*
X012280Y009415D02*
X020820Y009415D01*
X020820Y009357D02*
X012280Y009357D01*
X012280Y009298D02*
X020820Y009298D01*
X020820Y009240D02*
X012280Y009240D01*
X012280Y009181D02*
X020820Y009181D01*
X020820Y009123D02*
X012280Y009123D01*
X012280Y009064D02*
X020820Y009064D01*
X020820Y009006D02*
X012280Y009006D01*
X012280Y008947D02*
X020820Y008947D01*
X020820Y008889D02*
X012280Y008889D01*
X012280Y008830D02*
X020820Y008830D01*
X020820Y008772D02*
X012280Y008772D01*
X012280Y008713D02*
X020820Y008713D01*
X020820Y008655D02*
X012280Y008655D01*
X012280Y008596D02*
X020820Y008596D01*
X020820Y008538D02*
X012280Y008538D01*
X012280Y008479D02*
X020820Y008479D01*
X020820Y008421D02*
X012280Y008421D01*
X012280Y008362D02*
X020820Y008362D01*
X020820Y008304D02*
X012280Y008304D01*
X012280Y008245D02*
X017127Y008245D01*
X017133Y008250D02*
X017060Y008177D01*
X017020Y008082D01*
X017020Y007978D01*
X017060Y007883D01*
X017133Y007810D01*
X017228Y007770D01*
X017300Y007770D01*
X018020Y007050D01*
X018020Y006978D01*
X018060Y006883D01*
X018133Y006810D01*
X018228Y006770D01*
X018332Y006770D01*
X018427Y006810D01*
X018500Y006883D01*
X018540Y006978D01*
X018540Y007082D01*
X018500Y007177D01*
X018427Y007250D01*
X018332Y007290D01*
X018260Y007290D01*
X017540Y008010D01*
X017540Y008082D01*
X017500Y008177D01*
X017427Y008250D01*
X017332Y008290D01*
X017228Y008290D01*
X017133Y008250D01*
X017069Y008187D02*
X012280Y008187D01*
X012280Y008128D02*
X017039Y008128D01*
X017020Y008070D02*
X012280Y008070D01*
X012280Y008011D02*
X017020Y008011D01*
X017031Y007953D02*
X012280Y007953D01*
X012280Y007894D02*
X017055Y007894D01*
X017107Y007836D02*
X012280Y007836D01*
X012280Y007777D02*
X017211Y007777D01*
X017351Y007719D02*
X012280Y007719D01*
X012280Y007660D02*
X017410Y007660D01*
X017468Y007602D02*
X012280Y007602D01*
X012280Y007543D02*
X017527Y007543D01*
X017585Y007485D02*
X012280Y007485D01*
X012280Y007426D02*
X017644Y007426D01*
X017702Y007368D02*
X012280Y007368D01*
X012280Y007309D02*
X017761Y007309D01*
X017819Y007251D02*
X012280Y007251D01*
X012280Y007192D02*
X017878Y007192D01*
X017936Y007134D02*
X012280Y007134D01*
X012280Y007075D02*
X017995Y007075D01*
X018020Y007017D02*
X012280Y007017D01*
X012280Y006958D02*
X018028Y006958D01*
X018053Y006900D02*
X012280Y006900D01*
X012280Y006841D02*
X018101Y006841D01*
X018198Y006783D02*
X012280Y006783D01*
X012280Y006724D02*
X018610Y006724D01*
X018610Y006666D02*
X012280Y006666D01*
X012280Y006607D02*
X018610Y006607D01*
X018610Y006549D02*
X012280Y006549D01*
X012280Y006490D02*
X018610Y006490D01*
X018610Y006432D02*
X016846Y006432D01*
X016827Y006450D02*
X016732Y006490D01*
X016628Y006490D01*
X016533Y006450D01*
X016460Y006377D01*
X016420Y006282D01*
X016420Y006178D01*
X016460Y006083D01*
X016533Y006010D01*
X016628Y005970D01*
X016700Y005970D01*
X018910Y003760D01*
X018970Y003700D01*
X018750Y003700D01*
X016940Y005510D01*
X016940Y005582D01*
X016900Y005677D01*
X016827Y005750D01*
X016732Y005790D01*
X016628Y005790D01*
X016533Y005750D01*
X016460Y005677D01*
X016420Y005582D01*
X016420Y005478D01*
X016460Y005383D01*
X016533Y005310D01*
X016628Y005270D01*
X016700Y005270D01*
X018510Y003460D01*
X018610Y003360D01*
X019382Y003360D01*
X019433Y003310D01*
X019528Y003270D01*
X019632Y003270D01*
X019727Y003310D01*
X019800Y003383D01*
X019840Y003478D01*
X019840Y003573D01*
X019927Y003610D01*
X020000Y003683D01*
X020040Y003778D01*
X020040Y003882D01*
X020000Y003977D01*
X019927Y004050D01*
X019832Y004090D01*
X019728Y004090D01*
X019633Y004050D01*
X019582Y004000D01*
X019150Y004000D01*
X016940Y006210D01*
X016940Y006282D01*
X016900Y006377D01*
X016827Y006450D01*
X016902Y006373D02*
X018610Y006373D01*
X018610Y006315D02*
X016926Y006315D01*
X016940Y006256D02*
X018610Y006256D01*
X018610Y006198D02*
X016953Y006198D01*
X017011Y006139D02*
X018610Y006139D01*
X018610Y006081D02*
X017070Y006081D01*
X017128Y006022D02*
X018610Y006022D01*
X018610Y005964D02*
X017187Y005964D01*
X017245Y005905D02*
X018610Y005905D01*
X018610Y005847D02*
X017304Y005847D01*
X017362Y005788D02*
X018610Y005788D01*
X018610Y005730D02*
X017421Y005730D01*
X017479Y005671D02*
X018610Y005671D01*
X018610Y005613D02*
X017538Y005613D01*
X017596Y005554D02*
X018610Y005554D01*
X018610Y005496D02*
X017655Y005496D01*
X017713Y005437D02*
X018610Y005437D01*
X018610Y005379D02*
X017772Y005379D01*
X017830Y005320D02*
X018602Y005320D01*
X018610Y005328D02*
X018560Y005277D01*
X018520Y005182D01*
X018520Y005078D01*
X018560Y004983D01*
X018633Y004910D01*
X018728Y004870D01*
X018832Y004870D01*
X018927Y004910D01*
X019000Y004983D01*
X019040Y005078D01*
X019040Y005182D01*
X019000Y005277D01*
X018950Y005328D01*
X018950Y006760D01*
X019160Y006970D01*
X019232Y006970D01*
X019327Y007010D01*
X019400Y007083D01*
X019440Y007178D01*
X019440Y007282D01*
X019400Y007377D01*
X019327Y007450D01*
X019232Y007490D01*
X019128Y007490D01*
X019033Y007450D01*
X018960Y007377D01*
X018920Y007282D01*
X018920Y007210D01*
X018610Y006900D01*
X018610Y005328D01*
X018553Y005262D02*
X017889Y005262D01*
X017947Y005203D02*
X018529Y005203D01*
X018520Y005145D02*
X018006Y005145D01*
X018064Y005086D02*
X018520Y005086D01*
X018541Y005028D02*
X018123Y005028D01*
X018181Y004969D02*
X018573Y004969D01*
X018632Y004911D02*
X018240Y004911D01*
X018298Y004852D02*
X020820Y004852D01*
X020820Y004794D02*
X018357Y004794D01*
X018415Y004735D02*
X020820Y004735D01*
X020820Y004677D02*
X018474Y004677D01*
X018532Y004618D02*
X020820Y004618D01*
X020820Y004560D02*
X018591Y004560D01*
X018649Y004501D02*
X020820Y004501D01*
X020820Y004443D02*
X018708Y004443D01*
X018766Y004384D02*
X020820Y004384D01*
X020820Y004326D02*
X018825Y004326D01*
X018883Y004267D02*
X020820Y004267D01*
X020820Y004209D02*
X018942Y004209D01*
X019000Y004150D02*
X020820Y004150D01*
X020820Y004092D02*
X019059Y004092D01*
X019117Y004033D02*
X019615Y004033D01*
X019945Y004033D02*
X020820Y004033D01*
X020820Y003975D02*
X020002Y003975D01*
X020026Y003916D02*
X020820Y003916D01*
X020820Y003858D02*
X020040Y003858D01*
X020040Y003799D02*
X020820Y003799D01*
X020820Y003741D02*
X020024Y003741D01*
X020000Y003682D02*
X020820Y003682D01*
X020820Y003624D02*
X019941Y003624D01*
X019840Y003565D02*
X020820Y003565D01*
X020820Y003507D02*
X019840Y003507D01*
X019827Y003448D02*
X020820Y003448D01*
X020820Y003390D02*
X019803Y003390D01*
X019749Y003331D02*
X020820Y003331D01*
X020820Y003273D02*
X019638Y003273D01*
X019522Y003273D02*
X012280Y003273D01*
X012280Y003331D02*
X019411Y003331D01*
X018929Y003741D02*
X018710Y003741D01*
X018651Y003799D02*
X018871Y003799D01*
X018812Y003858D02*
X018593Y003858D01*
X018534Y003916D02*
X018754Y003916D01*
X018695Y003975D02*
X018476Y003975D01*
X018417Y004033D02*
X018637Y004033D01*
X018578Y004092D02*
X018359Y004092D01*
X018300Y004150D02*
X018520Y004150D01*
X018461Y004209D02*
X018242Y004209D01*
X018183Y004267D02*
X018403Y004267D01*
X018344Y004326D02*
X018125Y004326D01*
X018066Y004384D02*
X018286Y004384D01*
X018227Y004443D02*
X018008Y004443D01*
X017949Y004501D02*
X018169Y004501D01*
X018110Y004560D02*
X017891Y004560D01*
X017832Y004618D02*
X018052Y004618D01*
X017993Y004677D02*
X017774Y004677D01*
X017715Y004735D02*
X017935Y004735D01*
X017876Y004794D02*
X017657Y004794D01*
X017598Y004852D02*
X017818Y004852D01*
X017759Y004911D02*
X017540Y004911D01*
X017481Y004969D02*
X017701Y004969D01*
X017642Y005028D02*
X017423Y005028D01*
X017364Y005086D02*
X017584Y005086D01*
X017525Y005145D02*
X017306Y005145D01*
X017247Y005203D02*
X017467Y005203D01*
X017408Y005262D02*
X017189Y005262D01*
X017130Y005320D02*
X017350Y005320D01*
X017291Y005379D02*
X017072Y005379D01*
X017013Y005437D02*
X017233Y005437D01*
X017174Y005496D02*
X016955Y005496D01*
X016940Y005554D02*
X017116Y005554D01*
X017057Y005613D02*
X016927Y005613D01*
X016903Y005671D02*
X016999Y005671D01*
X016940Y005730D02*
X016848Y005730D01*
X016882Y005788D02*
X016736Y005788D01*
X016823Y005847D02*
X012280Y005847D01*
X012280Y005905D02*
X016765Y005905D01*
X016706Y005964D02*
X012280Y005964D01*
X012280Y006022D02*
X016520Y006022D01*
X016462Y006081D02*
X012280Y006081D01*
X012280Y006139D02*
X016436Y006139D01*
X016420Y006198D02*
X012280Y006198D01*
X012280Y006256D02*
X016420Y006256D01*
X016434Y006315D02*
X012280Y006315D01*
X012280Y006373D02*
X016458Y006373D01*
X016514Y006432D02*
X012280Y006432D01*
X012280Y005788D02*
X016624Y005788D01*
X016512Y005730D02*
X012280Y005730D01*
X012280Y005671D02*
X016457Y005671D01*
X016433Y005613D02*
X012280Y005613D01*
X012280Y005554D02*
X016420Y005554D01*
X016420Y005496D02*
X012280Y005496D01*
X012280Y005437D02*
X016437Y005437D01*
X016464Y005379D02*
X012280Y005379D01*
X012280Y005320D02*
X016522Y005320D01*
X016708Y005262D02*
X012280Y005262D01*
X012280Y005203D02*
X016767Y005203D01*
X016825Y005145D02*
X012280Y005145D01*
X012280Y005086D02*
X016884Y005086D01*
X016942Y005028D02*
X012280Y005028D01*
X012280Y004969D02*
X017001Y004969D01*
X017059Y004911D02*
X012280Y004911D01*
X012280Y004852D02*
X017118Y004852D01*
X017176Y004794D02*
X012280Y004794D01*
X012280Y004735D02*
X017235Y004735D01*
X017293Y004677D02*
X012280Y004677D01*
X012280Y004618D02*
X017352Y004618D01*
X017410Y004560D02*
X012280Y004560D01*
X012280Y004501D02*
X017469Y004501D01*
X017527Y004443D02*
X012280Y004443D01*
X012280Y004384D02*
X017586Y004384D01*
X017644Y004326D02*
X012280Y004326D01*
X012280Y004267D02*
X017703Y004267D01*
X017761Y004209D02*
X012280Y004209D01*
X012280Y004150D02*
X017820Y004150D01*
X017878Y004092D02*
X012280Y004092D01*
X012280Y004033D02*
X017937Y004033D01*
X017995Y003975D02*
X012280Y003975D01*
X012280Y003916D02*
X018054Y003916D01*
X018112Y003858D02*
X012280Y003858D01*
X012280Y003799D02*
X018171Y003799D01*
X018229Y003741D02*
X012280Y003741D01*
X012280Y003682D02*
X018288Y003682D01*
X018346Y003624D02*
X012280Y003624D01*
X012280Y003565D02*
X018405Y003565D01*
X018463Y003507D02*
X012280Y003507D01*
X012280Y003448D02*
X018522Y003448D01*
X018580Y003390D02*
X012280Y003390D01*
X012280Y003214D02*
X020820Y003214D01*
X020820Y003156D02*
X012280Y003156D01*
X012280Y003097D02*
X020820Y003097D01*
X020820Y003039D02*
X012280Y003039D01*
X012280Y002980D02*
X020820Y002980D01*
X020820Y002922D02*
X012280Y002922D01*
X012280Y002863D02*
X020820Y002863D01*
X020820Y002805D02*
X012280Y002805D01*
X012280Y002746D02*
X020820Y002746D01*
X020820Y002688D02*
X012280Y002688D01*
X012280Y002629D02*
X020820Y002629D01*
X020820Y002571D02*
X012280Y002571D01*
X012280Y002512D02*
X020820Y002512D01*
X020820Y002454D02*
X012280Y002454D01*
X012280Y002395D02*
X020820Y002395D01*
X020820Y002337D02*
X012280Y002337D01*
X012280Y002278D02*
X020820Y002278D01*
X020820Y002220D02*
X012280Y002220D01*
X012280Y002161D02*
X020820Y002161D01*
X020820Y002103D02*
X012280Y002103D01*
X012280Y002044D02*
X020820Y002044D01*
X020820Y001986D02*
X012280Y001986D01*
X012280Y001927D02*
X020820Y001927D01*
X020820Y001869D02*
X012280Y001869D01*
X012280Y001810D02*
X020820Y001810D01*
X020820Y001752D02*
X012280Y001752D01*
X012280Y001693D02*
X020820Y001693D01*
X020820Y001635D02*
X012280Y001635D01*
X012280Y001576D02*
X020820Y001576D01*
X020820Y001518D02*
X012280Y001518D01*
X012280Y001459D02*
X020820Y001459D01*
X020820Y001401D02*
X012280Y001401D01*
X012280Y001342D02*
X020820Y001342D01*
X020820Y001284D02*
X012280Y001284D01*
X012280Y001260D02*
X012280Y017096D01*
X020820Y017096D01*
X020820Y001260D01*
X012280Y001260D01*
X018928Y004911D02*
X020820Y004911D01*
X020820Y004969D02*
X018987Y004969D01*
X019019Y005028D02*
X020820Y005028D01*
X020820Y005086D02*
X019040Y005086D01*
X019040Y005145D02*
X020820Y005145D01*
X020820Y005203D02*
X019031Y005203D01*
X019007Y005262D02*
X020820Y005262D01*
X020820Y005320D02*
X018958Y005320D01*
X018950Y005379D02*
X020820Y005379D01*
X020820Y005437D02*
X018950Y005437D01*
X018950Y005496D02*
X020820Y005496D01*
X020820Y005554D02*
X018950Y005554D01*
X018950Y005613D02*
X020820Y005613D01*
X020820Y005671D02*
X018950Y005671D01*
X018950Y005730D02*
X020820Y005730D01*
X020820Y005788D02*
X018950Y005788D01*
X018950Y005847D02*
X020820Y005847D01*
X020820Y005905D02*
X018950Y005905D01*
X018950Y005964D02*
X020820Y005964D01*
X020820Y006022D02*
X018950Y006022D01*
X018950Y006081D02*
X020820Y006081D01*
X020820Y006139D02*
X018950Y006139D01*
X018950Y006198D02*
X020820Y006198D01*
X020820Y006256D02*
X018950Y006256D01*
X018950Y006315D02*
X020820Y006315D01*
X020820Y006373D02*
X018950Y006373D01*
X018950Y006432D02*
X020820Y006432D01*
X020820Y006490D02*
X018950Y006490D01*
X018950Y006549D02*
X020820Y006549D01*
X020820Y006607D02*
X018950Y006607D01*
X018950Y006666D02*
X020820Y006666D01*
X020820Y006724D02*
X018950Y006724D01*
X018973Y006783D02*
X020820Y006783D01*
X020820Y006841D02*
X019031Y006841D01*
X019090Y006900D02*
X020820Y006900D01*
X020820Y006958D02*
X019148Y006958D01*
X019334Y007017D02*
X020820Y007017D01*
X020820Y007075D02*
X019393Y007075D01*
X019421Y007134D02*
X020820Y007134D01*
X020820Y007192D02*
X019440Y007192D01*
X019440Y007251D02*
X020820Y007251D01*
X020820Y007309D02*
X019429Y007309D01*
X019404Y007368D02*
X020820Y007368D01*
X020820Y007426D02*
X019352Y007426D01*
X019245Y007485D02*
X020820Y007485D01*
X020820Y007543D02*
X018007Y007543D01*
X017949Y007602D02*
X020820Y007602D01*
X020820Y007660D02*
X017890Y007660D01*
X017832Y007719D02*
X020820Y007719D01*
X020820Y007777D02*
X017773Y007777D01*
X017715Y007836D02*
X020820Y007836D01*
X020820Y007894D02*
X017656Y007894D01*
X017598Y007953D02*
X020820Y007953D01*
X020820Y008011D02*
X017540Y008011D01*
X017540Y008070D02*
X020820Y008070D01*
X020820Y008128D02*
X017521Y008128D01*
X017491Y008187D02*
X020820Y008187D01*
X020820Y008245D02*
X017433Y008245D01*
X018066Y007485D02*
X019115Y007485D01*
X019008Y007426D02*
X018124Y007426D01*
X018183Y007368D02*
X018956Y007368D01*
X018931Y007309D02*
X018241Y007309D01*
X018427Y007251D02*
X018920Y007251D01*
X018902Y007192D02*
X018486Y007192D01*
X018519Y007134D02*
X018843Y007134D01*
X018785Y007075D02*
X018540Y007075D01*
X018540Y007017D02*
X018726Y007017D01*
X018668Y006958D02*
X018532Y006958D01*
X018507Y006900D02*
X018610Y006900D01*
X018610Y006841D02*
X018459Y006841D01*
X018362Y006783D02*
X018610Y006783D01*
X019138Y012048D02*
X020820Y012048D01*
X020820Y012106D02*
X019188Y012106D01*
X019188Y012165D02*
X020820Y012165D01*
X020820Y012223D02*
X019188Y012223D01*
X019188Y012282D02*
X020820Y012282D01*
X020820Y012340D02*
X019188Y012340D01*
X019188Y012399D02*
X020820Y012399D01*
X020820Y012457D02*
X019188Y012457D01*
X019188Y012516D02*
X020820Y012516D01*
X020820Y012574D02*
X019176Y012574D01*
X019118Y012633D02*
X020820Y012633D01*
X020820Y012691D02*
X018188Y012691D01*
X018188Y012750D02*
X020820Y012750D01*
X020820Y012808D02*
X018188Y012808D01*
X018188Y012867D02*
X020820Y012867D01*
X020820Y012925D02*
X018188Y012925D01*
X018166Y012984D02*
X020820Y012984D01*
X020820Y013042D02*
X016588Y013042D01*
X016588Y012984D02*
X017593Y012984D01*
X017572Y012925D02*
X016588Y012925D01*
X016557Y012867D02*
X017572Y012867D01*
X018218Y012633D02*
X018642Y012633D01*
X018584Y012574D02*
X018276Y012574D01*
X018335Y012516D02*
X018572Y012516D01*
X017134Y013744D02*
X020820Y013744D01*
X020820Y013686D02*
X017076Y013686D01*
X017017Y013627D02*
X020820Y013627D01*
X020820Y013569D02*
X016959Y013569D01*
X016900Y013510D02*
X020820Y013510D01*
X020820Y013452D02*
X016842Y013452D01*
X016783Y013393D02*
X020820Y013393D01*
X020820Y013335D02*
X016725Y013335D01*
X016666Y013276D02*
X020820Y013276D01*
X020820Y013218D02*
X016608Y013218D01*
X016588Y013159D02*
X020820Y013159D01*
X020820Y013101D02*
X016588Y013101D01*
X017193Y013803D02*
X020820Y013803D01*
X020820Y013861D02*
X017251Y013861D01*
X017310Y013920D02*
X020820Y013920D01*
X020820Y013978D02*
X017368Y013978D01*
X017427Y014037D02*
X020820Y014037D01*
X020820Y014095D02*
X017485Y014095D01*
X017544Y014154D02*
X020820Y014154D01*
X020820Y014212D02*
X017602Y014212D01*
X017661Y014271D02*
X020820Y014271D01*
X020820Y014329D02*
X017719Y014329D01*
X017778Y014388D02*
X020820Y014388D01*
X020820Y014446D02*
X017836Y014446D01*
X017895Y014505D02*
X020820Y014505D01*
X020820Y014563D02*
X017953Y014563D01*
X018012Y014622D02*
X020820Y014622D01*
X020820Y014680D02*
X018070Y014680D01*
X018129Y014739D02*
X020820Y014739D01*
X020820Y014797D02*
X018187Y014797D01*
X018246Y014856D02*
X020820Y014856D01*
X020820Y014914D02*
X018304Y014914D01*
X018363Y014973D02*
X020820Y014973D01*
X020820Y015031D02*
X018421Y015031D01*
X018480Y015090D02*
X020820Y015090D01*
X020820Y015148D02*
X018538Y015148D01*
X018597Y015207D02*
X020820Y015207D01*
X020820Y015265D02*
X018655Y015265D01*
X018714Y015324D02*
X020820Y015324D01*
X020820Y015382D02*
X018772Y015382D01*
X018831Y015441D02*
X019629Y015441D01*
X019572Y015499D02*
X018889Y015499D01*
X018948Y015558D02*
X019572Y015558D01*
X019572Y015909D02*
X012280Y015909D01*
X012280Y015967D02*
X019577Y015967D01*
X019636Y016026D02*
X012280Y016026D01*
X012280Y016084D02*
X020820Y016084D01*
X020820Y016026D02*
X020124Y016026D01*
X020183Y015967D02*
X020820Y015967D01*
X020820Y015909D02*
X020188Y015909D01*
X020188Y015850D02*
X020820Y015850D01*
X020820Y015792D02*
X020188Y015792D01*
X020188Y015733D02*
X020820Y015733D01*
X020820Y015675D02*
X020188Y015675D01*
X020188Y015616D02*
X020820Y015616D01*
X020820Y015558D02*
X020188Y015558D01*
X020188Y015499D02*
X020820Y015499D01*
X020820Y015441D02*
X020131Y015441D01*
X020820Y016143D02*
X012280Y016143D01*
X012280Y016201D02*
X020820Y016201D01*
X020820Y016260D02*
X012280Y016260D01*
X012280Y016318D02*
X020820Y016318D01*
X020820Y016377D02*
X012280Y016377D01*
X012280Y016435D02*
X020820Y016435D01*
X020820Y016494D02*
X012280Y016494D01*
X012280Y016552D02*
X020820Y016552D01*
X020820Y016611D02*
X012280Y016611D01*
X012280Y016669D02*
X020820Y016669D01*
X020820Y016728D02*
X012280Y016728D01*
X012280Y016786D02*
X020820Y016786D01*
X020820Y016845D02*
X012280Y016845D01*
X012280Y016903D02*
X020820Y016903D01*
X020820Y016962D02*
X012280Y016962D01*
X012280Y017020D02*
X020820Y017020D01*
X020820Y017079D02*
X012280Y017079D01*
X013055Y015850D02*
X013652Y015850D01*
X013594Y015792D02*
X013126Y015792D01*
X013171Y015733D02*
X013544Y015733D01*
X013519Y015675D02*
X013201Y015675D01*
X013218Y015616D02*
X013495Y015616D01*
D12*
X012580Y016830D03*
X020580Y016830D03*
X020480Y002030D03*
D13*
X019580Y003530D03*
X019780Y003830D03*
X018780Y005130D03*
X016680Y005530D03*
X016680Y006230D03*
X018280Y007030D03*
X019180Y007230D03*
X017280Y008030D03*
X008480Y007630D03*
X007880Y005030D03*
X006380Y004930D03*
X006480Y003330D03*
X006480Y002730D03*
X004480Y004330D03*
X003280Y005230D03*
X002880Y005030D03*
X002580Y004430D03*
X003280Y003230D03*
X004180Y003230D03*
X004180Y006330D03*
X003180Y007130D03*
D14*
X003380Y007130D01*
X004180Y006330D01*
X004580Y005230D02*
X003280Y005230D01*
X002880Y005030D02*
X004180Y005030D01*
X006480Y002730D01*
X006480Y003330D02*
X004580Y005230D01*
X004380Y004430D02*
X002580Y004430D01*
X003280Y003230D02*
X004180Y003230D01*
X004480Y004330D02*
X004380Y004430D01*
X007880Y005030D02*
X007880Y007030D01*
X008480Y007630D01*
X006680Y011330D02*
X006880Y011530D01*
X006680Y011330D02*
X003280Y011330D01*
X002280Y011230D02*
X002280Y010530D01*
X002280Y011230D02*
X003880Y012830D01*
X004780Y012830D01*
X016280Y013130D02*
X018880Y015730D01*
X019880Y015730D01*
X017880Y012730D02*
X018280Y012330D01*
X018880Y012330D01*
X017280Y008030D02*
X018280Y007030D01*
X018780Y006830D02*
X019180Y007230D01*
X018780Y006830D02*
X018780Y005130D01*
X019080Y003830D02*
X019780Y003830D01*
X019580Y003530D02*
X018680Y003530D01*
X016680Y005530D01*
X016680Y006230D02*
X019080Y003830D01*
D15*
X001460Y001310D02*
X001460Y017046D01*
X009380Y017046D01*
X009380Y001310D01*
X001460Y001310D01*
X001460Y001410D02*
X009380Y001410D01*
X009380Y001568D02*
X001460Y001568D01*
X001460Y001727D02*
X009380Y001727D01*
X009380Y001885D02*
X001460Y001885D01*
X001460Y002044D02*
X009380Y002044D01*
X009380Y002202D02*
X001460Y002202D01*
X001460Y002361D02*
X009380Y002361D01*
X009380Y002519D02*
X006637Y002519D01*
X006627Y002510D02*
X006700Y002583D01*
X006740Y002678D01*
X006740Y002782D01*
X006700Y002877D01*
X006627Y002950D01*
X006532Y002990D01*
X006460Y002990D01*
X006347Y003104D01*
X006428Y003070D01*
X006532Y003070D01*
X006627Y003110D01*
X006700Y003183D01*
X006740Y003278D01*
X006740Y003382D01*
X006700Y003477D01*
X006627Y003550D01*
X006532Y003590D01*
X006460Y003590D01*
X004650Y005400D01*
X003478Y005400D01*
X003427Y005450D01*
X003332Y005490D01*
X003228Y005490D01*
X003133Y005450D01*
X003060Y005377D01*
X003020Y005282D01*
X003020Y005253D01*
X002932Y005290D01*
X002828Y005290D01*
X002733Y005250D01*
X002660Y005177D01*
X002620Y005082D01*
X002620Y004978D01*
X002660Y004883D01*
X002733Y004810D01*
X002828Y004770D01*
X002932Y004770D01*
X003027Y004810D01*
X003078Y004860D01*
X004110Y004860D01*
X004370Y004600D01*
X002778Y004600D01*
X002727Y004650D01*
X002632Y004690D01*
X002528Y004690D01*
X002433Y004650D01*
X002360Y004577D01*
X002320Y004482D01*
X002320Y004378D01*
X002360Y004283D01*
X002433Y004210D01*
X002528Y004170D01*
X002632Y004170D01*
X002727Y004210D01*
X002778Y004260D01*
X004228Y004260D01*
X004260Y004183D01*
X004333Y004110D01*
X004428Y004070D01*
X004532Y004070D01*
X004627Y004110D01*
X004700Y004183D01*
X004726Y004244D01*
X006220Y002750D01*
X006220Y002678D01*
X006260Y002583D01*
X006333Y002510D01*
X006428Y002470D01*
X006532Y002470D01*
X006627Y002510D01*
X006740Y002678D02*
X009380Y002678D01*
X009380Y002836D02*
X006718Y002836D01*
X006456Y002995D02*
X009380Y002995D01*
X009380Y003153D02*
X006671Y003153D01*
X006740Y003312D02*
X009380Y003312D01*
X009380Y003470D02*
X006703Y003470D01*
X006422Y003629D02*
X009380Y003629D01*
X009380Y003787D02*
X006263Y003787D01*
X006105Y003946D02*
X009380Y003946D01*
X009380Y004104D02*
X005946Y004104D01*
X005788Y004263D02*
X009380Y004263D01*
X009380Y004421D02*
X005629Y004421D01*
X005471Y004580D02*
X009380Y004580D01*
X009380Y004738D02*
X005312Y004738D01*
X005154Y004897D02*
X009380Y004897D01*
X009380Y005055D02*
X004995Y005055D01*
X004837Y005214D02*
X009380Y005214D01*
X009380Y005372D02*
X004678Y005372D01*
X004232Y004738D02*
X001460Y004738D01*
X001460Y004580D02*
X002362Y004580D01*
X002320Y004421D02*
X001460Y004421D01*
X001460Y004263D02*
X002380Y004263D01*
X002654Y004897D02*
X001460Y004897D01*
X001460Y005055D02*
X002620Y005055D01*
X002696Y005214D02*
X001460Y005214D01*
X001460Y005372D02*
X003057Y005372D01*
X001460Y005531D02*
X009380Y005531D01*
X009380Y005689D02*
X001460Y005689D01*
X001460Y005848D02*
X009380Y005848D01*
X009380Y006006D02*
X001460Y006006D01*
X001460Y006165D02*
X009380Y006165D01*
X009380Y006323D02*
X001460Y006323D01*
X001460Y006482D02*
X009380Y006482D01*
X009380Y006640D02*
X001460Y006640D01*
X001460Y006799D02*
X009380Y006799D01*
X009380Y006957D02*
X001460Y006957D01*
X001460Y007116D02*
X009380Y007116D01*
X009380Y007274D02*
X001460Y007274D01*
X001460Y007433D02*
X009380Y007433D01*
X009380Y007591D02*
X001460Y007591D01*
X001460Y007750D02*
X009380Y007750D01*
X009380Y007908D02*
X001460Y007908D01*
X001460Y008067D02*
X009380Y008067D01*
X009380Y008225D02*
X001460Y008225D01*
X001460Y008384D02*
X009380Y008384D01*
X009380Y008542D02*
X001460Y008542D01*
X001460Y008701D02*
X009380Y008701D01*
X009380Y008859D02*
X001460Y008859D01*
X001460Y009018D02*
X009380Y009018D01*
X009380Y009176D02*
X001460Y009176D01*
X001460Y009335D02*
X009380Y009335D01*
X009380Y009493D02*
X001460Y009493D01*
X001460Y009652D02*
X009380Y009652D01*
X009380Y009810D02*
X001460Y009810D01*
X001460Y009969D02*
X009380Y009969D01*
X009380Y010127D02*
X001460Y010127D01*
X001460Y010286D02*
X002089Y010286D01*
X002105Y010269D02*
X002219Y010222D01*
X002341Y010222D01*
X002455Y010269D01*
X002541Y010355D01*
X002588Y010469D01*
X002588Y010591D01*
X002541Y010705D01*
X002455Y010791D01*
X002450Y010793D01*
X002450Y011160D01*
X003950Y012660D01*
X004517Y012660D01*
X004519Y012655D01*
X004605Y012569D01*
X004719Y012522D01*
X004841Y012522D01*
X004955Y012569D01*
X005041Y012655D01*
X005088Y012769D01*
X005088Y012891D01*
X005041Y013005D01*
X004955Y013091D01*
X004841Y013138D01*
X004719Y013138D01*
X004605Y013091D01*
X004519Y013005D01*
X004517Y013000D01*
X003810Y013000D01*
X003710Y012900D01*
X002110Y011300D01*
X002110Y010793D01*
X002105Y010791D01*
X002019Y010705D01*
X001972Y010591D01*
X001972Y010469D01*
X002019Y010355D01*
X002105Y010269D01*
X001982Y010444D02*
X001460Y010444D01*
X001460Y010603D02*
X001977Y010603D01*
X002075Y010761D02*
X001460Y010761D01*
X001460Y010920D02*
X002110Y010920D01*
X002110Y011078D02*
X001460Y011078D01*
X001460Y011237D02*
X002110Y011237D01*
X002205Y011395D02*
X001460Y011395D01*
X001460Y011554D02*
X002363Y011554D01*
X002522Y011712D02*
X001460Y011712D01*
X001460Y011871D02*
X002680Y011871D01*
X002839Y012029D02*
X001460Y012029D01*
X001460Y012188D02*
X002997Y012188D01*
X003156Y012346D02*
X001460Y012346D01*
X001460Y012505D02*
X003314Y012505D01*
X003473Y012663D02*
X001460Y012663D01*
X001460Y012822D02*
X003631Y012822D01*
X003790Y012980D02*
X001460Y012980D01*
X001460Y013139D02*
X009380Y013139D01*
X009380Y013297D02*
X001460Y013297D01*
X001460Y013456D02*
X009380Y013456D01*
X009380Y013614D02*
X001460Y013614D01*
X001460Y013773D02*
X009380Y013773D01*
X009380Y013931D02*
X001460Y013931D01*
X001460Y014090D02*
X009380Y014090D01*
X009380Y014248D02*
X001460Y014248D01*
X001460Y014407D02*
X009380Y014407D01*
X009380Y014565D02*
X001460Y014565D01*
X001460Y014724D02*
X009380Y014724D01*
X009380Y014882D02*
X001460Y014882D01*
X001460Y015041D02*
X009380Y015041D01*
X009380Y015199D02*
X009099Y015199D01*
X009078Y015184D02*
X009131Y015223D01*
X009177Y015269D01*
X009216Y015322D01*
X009246Y015380D01*
X009266Y015443D01*
X009276Y015507D01*
X009276Y015540D01*
X009276Y015573D01*
X009266Y015637D01*
X009246Y015700D01*
X009216Y015758D01*
X009177Y015811D01*
X009131Y015857D01*
X009078Y015896D01*
X009020Y015926D01*
X008957Y015946D01*
X008893Y015956D01*
X008860Y015956D01*
X008827Y015956D01*
X008763Y015946D01*
X008700Y015926D01*
X008642Y015896D01*
X008589Y015857D01*
X008543Y015811D01*
X008504Y015758D01*
X008474Y015700D01*
X008454Y015637D01*
X008444Y015573D01*
X008444Y015540D01*
X008444Y015507D01*
X008454Y015443D01*
X008474Y015380D01*
X008504Y015322D01*
X008543Y015269D01*
X008589Y015223D01*
X008642Y015184D01*
X008700Y015154D01*
X008763Y015134D01*
X008827Y015124D01*
X008860Y015124D01*
X008893Y015124D01*
X008957Y015134D01*
X009020Y015154D01*
X009078Y015184D01*
X008860Y015199D02*
X008860Y015199D01*
X008860Y015124D02*
X008860Y015540D01*
X008860Y015540D01*
X008860Y015956D01*
X008860Y015540D01*
X009276Y015540D01*
X008860Y015540D01*
X008860Y015540D01*
X008860Y015540D01*
X008444Y015540D01*
X008860Y015540D01*
X008860Y015540D01*
X008860Y015124D01*
X008860Y015358D02*
X008860Y015358D01*
X008860Y015516D02*
X008860Y015516D01*
X008860Y015675D02*
X008860Y015675D01*
X008860Y015833D02*
X008860Y015833D01*
X009156Y015833D02*
X009380Y015833D01*
X009380Y015675D02*
X009254Y015675D01*
X009276Y015516D02*
X009380Y015516D01*
X009380Y015358D02*
X009234Y015358D01*
X008621Y015199D02*
X007994Y015199D01*
X007933Y015174D02*
X008067Y015230D01*
X008170Y015333D01*
X008226Y015467D01*
X008226Y015613D01*
X008170Y015747D01*
X008067Y015850D01*
X007933Y015906D01*
X007787Y015906D01*
X007653Y015850D01*
X007550Y015747D01*
X007494Y015613D01*
X007494Y015467D01*
X007550Y015333D01*
X007653Y015230D01*
X007787Y015174D01*
X007933Y015174D01*
X007726Y015199D02*
X001460Y015199D01*
X001460Y015358D02*
X007539Y015358D01*
X007494Y015516D02*
X001460Y015516D01*
X001460Y015675D02*
X007519Y015675D01*
X007635Y015833D02*
X001460Y015833D01*
X001460Y015992D02*
X009380Y015992D01*
X009380Y016150D02*
X001460Y016150D01*
X001460Y016309D02*
X009380Y016309D01*
X009380Y016467D02*
X001460Y016467D01*
X001460Y016626D02*
X009380Y016626D01*
X009380Y016784D02*
X001460Y016784D01*
X001460Y016943D02*
X009380Y016943D01*
X008564Y015833D02*
X008085Y015833D01*
X008201Y015675D02*
X008466Y015675D01*
X008444Y015516D02*
X008226Y015516D01*
X008181Y015358D02*
X008486Y015358D01*
X009380Y012980D02*
X005051Y012980D01*
X005088Y012822D02*
X009380Y012822D01*
X009380Y012663D02*
X005044Y012663D01*
X003795Y012505D02*
X009380Y012505D01*
X009380Y012346D02*
X003636Y012346D01*
X003478Y012188D02*
X009380Y012188D01*
X009380Y012029D02*
X003319Y012029D01*
X003161Y011871D02*
X009380Y011871D01*
X009380Y011712D02*
X007134Y011712D01*
X007141Y011705D02*
X007055Y011791D01*
X006941Y011838D01*
X006819Y011838D01*
X006705Y011791D01*
X006619Y011705D01*
X006572Y011591D01*
X006572Y011500D01*
X003543Y011500D01*
X003541Y011505D01*
X003455Y011591D01*
X003341Y011638D01*
X003219Y011638D01*
X003105Y011591D01*
X003019Y011505D01*
X002972Y011391D01*
X002972Y011269D01*
X003019Y011155D01*
X003105Y011069D01*
X003219Y011022D01*
X003341Y011022D01*
X003455Y011069D01*
X003541Y011155D01*
X003543Y011160D01*
X006750Y011160D01*
X006814Y011224D01*
X006819Y011222D01*
X006941Y011222D01*
X007055Y011269D01*
X007141Y011355D01*
X007188Y011469D01*
X007188Y011591D01*
X007141Y011705D01*
X007188Y011554D02*
X009380Y011554D01*
X009380Y011395D02*
X007158Y011395D01*
X006977Y011237D02*
X009380Y011237D01*
X009380Y011078D02*
X003464Y011078D01*
X003096Y011078D02*
X002450Y011078D01*
X002450Y010920D02*
X009380Y010920D01*
X009380Y010761D02*
X002485Y010761D01*
X002583Y010603D02*
X009380Y010603D01*
X009380Y010444D02*
X002578Y010444D01*
X002471Y010286D02*
X009380Y010286D01*
X006626Y011712D02*
X003002Y011712D01*
X003068Y011554D02*
X002844Y011554D01*
X002973Y011395D02*
X002685Y011395D01*
X002527Y011237D02*
X002985Y011237D01*
X003492Y011554D02*
X006572Y011554D01*
X004866Y004104D02*
X004614Y004104D01*
X004346Y004104D02*
X001460Y004104D01*
X001460Y003946D02*
X005024Y003946D01*
X005183Y003787D02*
X001460Y003787D01*
X001460Y003629D02*
X005341Y003629D01*
X005500Y003470D02*
X001460Y003470D01*
X001460Y003312D02*
X005658Y003312D01*
X005817Y003153D02*
X001460Y003153D01*
X001460Y002995D02*
X005975Y002995D01*
X006134Y002836D02*
X001460Y002836D01*
X001460Y002678D02*
X006220Y002678D01*
X006323Y002519D02*
X001460Y002519D01*
D16*
X001780Y002230D03*
X001680Y016830D03*
X008980Y016730D03*
D17*
X016280Y013130D03*
X017880Y012730D03*
X018880Y012330D03*
X019880Y015730D03*
D18*
X006880Y011530D03*
X004780Y012830D03*
X003280Y011330D03*
X002280Y010530D03*
M02*
