%
M48
M72
T01C0.0140
T02C0.0236
T03C0.0315
T04C0.0340
T05C0.0433
%
T01
X3280Y3230
X4180Y3230
X4480Y4330
X3280Y5230
X2880Y5030
X2580Y4430
X4180Y6330
X3180Y7130
X6380Y4930
X7880Y5030
X6480Y3330
X6480Y2730
X8480Y7630
X16680Y6230
X16680Y5530
X18280Y7030
X19180Y7230
X17280Y8030
X18780Y5130
X19780Y3830
X19580Y3530
T02
X18880Y12330
X17880Y12730
X16280Y13130
X19880Y15730
X6880Y11530
X4780Y12830
X3280Y11330
X2280Y10530
T03
X7860Y15540
X8860Y15540
X9860Y15540
X12860Y15540
X13860Y15540
T04
X12580Y16830
X20580Y16830
X20480Y2030
T05
X1780Y2230
X1680Y16830
X8980Y16730
M30
